<!-- <svg xmlns="http://www.w3.org/2000/svg" xmlns:xlink="http://www.w3.org/1999/xlink" width="851" zoomAndPan="magnify" viewBox="0 0 638.25 236.249991" height="315" preserveAspectRatio="xMidYMid meet" version="1.0"><defs><clipPath id="af549f092b"><path d="M 0.636719 0 L 636.867188 0 L 636.867188 235.503906 L 0.636719 235.503906 Z M 0.636719 0 " clip-rule="nonzero"/></clipPath><clipPath id="421ad0367a"><path d="M 487 0 L 636.867188 0 L 636.867188 235.503906 L 487 235.503906 Z M 487 0 " clip-rule="nonzero"/></clipPath><clipPath id="e9e9426926"><path d="M 354.988281 -11.300781 L 757.953125 -281.09375 L 1042.511719 143.925781 L 639.546875 413.71875 Z M 354.988281 -11.300781 " clip-rule="nonzero"/></clipPath><clipPath id="14ed633d44"><path d="M 305.40625 -1.050781 L 746.460938 -296.34375 L 1041.757812 144.710938 L 600.703125 440.007812 Z M 305.40625 -1.050781 " clip-rule="nonzero"/></clipPath><clipPath id="917b3e1c68"><path d="M 557 167.835938 L 583.367188 167.835938 L 583.367188 196.785156 L 557 196.785156 Z M 557 167.835938 " clip-rule="nonzero"/></clipPath><clipPath id="cde77f13ca"><path d="M 0.636719 0 L 155 0 L 155 235.503906 L 0.636719 235.503906 Z M 0.636719 0 " clip-rule="nonzero"/></clipPath><clipPath id="aa887f402d"><path d="M -272.757812 525.492188 L -508.714844 -56.863281 L 27.203125 -274.003906 L 263.160156 308.351562 Z M -272.757812 525.492188 " clip-rule="nonzero"/></clipPath><clipPath id="f1ddfa9e46"><path d="M -258.050781 561.789062 L -508.683594 -56.792969 L 157.265625 -326.621094 L 407.898438 291.960938 Z M -258.050781 561.789062 " clip-rule="nonzero"/></clipPath><clipPath id="b10145eaa4"><path d="M 0.636719 0 L 102 0 L 102 212 L 0.636719 212 Z M 0.636719 0 " clip-rule="nonzero"/></clipPath><clipPath id="4b778d45a4"><path d="M -213.417969 197.183594 L -188.605469 -79.300781 L 112.828125 -52.246094 L 88.019531 224.234375 Z M -213.417969 197.183594 " clip-rule="nonzero"/></clipPath><clipPath id="6235c14b14"><path d="M -215.835938 224.125 L -188.605469 -79.304688 L 114.828125 -52.074219 L 87.597656 251.355469 Z M -215.835938 224.125 " clip-rule="nonzero"/></clipPath><clipPath id="23c598d87f"><path d="M 298.800781 68.148438 L 338.941406 68.148438 L 338.941406 75.832031 L 298.800781 75.832031 Z M 298.800781 68.148438 " clip-rule="nonzero"/></clipPath></defs><g clip-path="url(#af549f092b)"><path fill="#ffffff" d="M 0.636719 0 L 636.867188 0 L 636.867188 235.503906 L 0.636719 235.503906 Z M 0.636719 0 " fill-opacity="1" fill-rule="nonzero"/><path fill="#155f4e" d="M 0.636719 0 L 636.867188 0 L 636.867188 235.503906 L 0.636719 235.503906 Z M 0.636719 0 " fill-opacity="1" fill-rule="nonzero"/></g><g clip-path="url(#421ad0367a)"><g clip-path="url(#e9e9426926)"><g clip-path="url(#14ed633d44)"><path fill="#55bf8b" d="M 506.976562 108.46875 C 597.988281 -31.742188 438.09375 -18.285156 504.417969 -112.679688 C 570.738281 -207.078125 693.523438 -166.539062 751.398438 -46.101562 C 789.300781 32.859375 1036.785156 53.96875 937.890625 188.332031 C 838.996094 322.691406 751.085938 213.539062 653.453125 256.019531 C 537.246094 306.460938 459.941406 180.875 506.976562 108.46875 Z M 506.976562 108.46875 " fill-opacity="1" fill-rule="nonzero"/></g></g></g><g clip-path="url(#917b3e1c68)"><path fill="#ebe3c8" d="M 584.3125 181.363281 C 583.773438 178.523438 582.195312 176.03125 580.390625 173.816406 C 578.796875 171.863281 576.910156 170.117188 574.625 169.007812 C 573.523438 168.46875 572.277344 167.972656 571.039062 167.902344 C 569.8125 167.835938 568.570312 168.078125 567.445312 168.574219 C 566.300781 169.070312 565.257812 169.84375 564.476562 170.8125 C 563.589844 171.90625 563.09375 173.21875 562.578125 174.515625 C 561.40625 177.464844 559.605469 180.105469 558.410156 183.054688 C 557.351562 185.660156 556.835938 188.632812 557.914062 191.332031 C 558.953125 193.902344 561.363281 195.382812 564.015625 195.882812 C 567.050781 196.449219 570.1875 195.832031 573.011719 194.664062 C 574.425781 194.085938 575.78125 193.363281 577.101562 192.582031 C 578.40625 191.808594 579.714844 191.015625 580.933594 190.117188 C 582.039062 189.304688 583.003906 188.34375 583.613281 187.101562 C 584.195312 185.921875 584.472656 184.601562 584.484375 183.289062 C 584.492188 182.632812 584.421875 181.992188 584.3125 181.363281 " fill-opacity="1" fill-rule="nonzero"/></g><g clip-path="url(#cde77f13ca)"><g clip-path="url(#aa887f402d)"><g clip-path="url(#f1ddfa9e46)"><path fill="#eb653e" d="M -353.644531 200.242188 C -364.941406 75.519531 -237.894531 36.816406 -213.667969 -23.957031 C -189.441406 -84.726562 -136.214844 -207.8125 19.378906 -223.1875 C 192.183594 -240.273438 99.828125 -29.179688 138.671875 98.207031 C 211.707031 337.613281 16.507812 450.542969 -105.148438 402.136719 C -226.804688 353.730469 -339.011719 361.140625 -353.644531 200.242188 Z M -353.644531 200.242188 " fill-opacity="1" fill-rule="nonzero"/></g></g></g><g clip-path="url(#b10145eaa4)"><g clip-path="url(#4b778d45a4)"><g clip-path="url(#6235c14b14)"><path fill="#f2baae" d="M -94.183594 173.605469 C -123.972656 82.359375 -175.65625 158.636719 -193.890625 94.949219 C -212.125 31.265625 -149.714844 -8.953125 -75.03125 8.652344 C -26.085938 20.210938 72.640625 -82.714844 96.976562 9.941406 C 121.308594 102.59375 40.832031 102.480469 24.578125 161.417969 C 5.175781 231.527344 -78.8125 220.742188 -94.183594 173.605469 Z M -94.183594 173.605469 " fill-opacity="1" fill-rule="nonzero"/></g></g></g><g clip-path="url(#23c598d87f)"><path fill="#eb653e" d="M 299.351562 76.167969 C 299.148438 76.054688 299.074219 75.867188 299.066406 75.644531 C 299.042969 75.074219 299.023438 74.503906 298.992188 73.9375 C 298.941406 72.769531 298.960938 71.601562 298.984375 70.4375 C 298.976562 70.300781 299.042969 70.167969 299.164062 70.097656 C 299.832031 69.664062 300.585938 69.402344 301.378906 69.335938 C 302.277344 69.261719 303.175781 69.1875 304.070312 69.066406 C 304.542969 69 305.023438 68.984375 305.5 68.949219 C 306.382812 68.878906 307.265625 68.8125 308.148438 68.738281 C 308.703125 68.691406 309.257812 68.609375 309.808594 68.574219 C 310.3125 68.535156 310.8125 68.519531 311.3125 68.527344 C 311.882812 68.535156 312.449219 68.574219 313.011719 68.625 C 313.339844 68.65625 313.671875 68.753906 314 68.8125 C 314.621094 68.933594 315.257812 69 315.882812 69.007812 C 316.707031 69.015625 317.539062 69.023438 318.359375 69.015625 C 318.667969 69.015625 318.980469 68.984375 319.296875 68.976562 C 320.15625 68.960938 321.015625 68.949219 321.878906 68.941406 C 323.1875 68.941406 324.496094 68.8125 325.78125 68.558594 C 326.53125 68.421875 327.285156 68.339844 328.042969 68.328125 C 328.773438 68.296875 329.507812 68.242188 330.242188 68.199219 C 330.90625 68.148438 331.582031 68.148438 332.246094 68.199219 C 332.710938 68.242188 333.179688 68.257812 333.636719 68.328125 C 334.324219 68.429688 335.023438 68.421875 335.71875 68.453125 C 336.324219 68.476562 336.9375 68.535156 337.535156 68.617188 C 337.722656 68.632812 337.902344 68.640625 338.089844 68.632812 C 338.164062 68.632812 338.246094 68.617188 338.320312 68.617188 C 338.582031 68.601562 338.746094 68.761719 338.746094 69.023438 C 338.746094 69.882812 338.761719 70.742188 338.730469 71.601562 C 338.710938 72.304688 338.640625 73.007812 338.597656 73.710938 C 338.589844 73.808594 338.53125 73.890625 338.449219 73.945312 C 338.214844 74.109375 337.953125 74.214844 337.667969 74.242188 C 337.617188 74.25 337.566406 74.25 337.503906 74.25 C 336.9375 74.238281 336.390625 74.347656 335.835938 74.46875 C 335.050781 74.648438 334.242188 74.730469 333.433594 74.707031 C 332.671875 74.679688 331.910156 74.632812 331.140625 74.609375 C 330.53125 74.589844 329.917969 74.59375 329.304688 74.589844 C 328.371094 74.582031 327.429688 74.589844 326.492188 74.558594 C 325.886719 74.542969 325.273438 74.484375 324.667969 74.429688 C 323.925781 74.363281 323.1875 74.363281 322.445312 74.4375 C 321.878906 74.5 321.300781 74.542969 320.734375 74.617188 C 320.140625 74.699219 319.550781 74.820312 318.96875 74.933594 C 318.097656 75.097656 317.230469 75.285156 316.363281 75.425781 C 315.683594 75.539062 315 75.605469 314.3125 75.664062 C 312.367188 75.835938 310.414062 75.777344 308.464844 75.769531 C 307.820312 75.769531 307.167969 75.734375 306.527344 75.746094 C 305.746094 75.769531 304.96875 75.828125 304.199219 75.867188 C 303.511719 75.898438 302.824219 75.917969 302.132812 75.949219 C 301.460938 75.972656 300.796875 75.996094 300.128906 76.03125 C 299.949219 76.054688 299.777344 76.089844 299.605469 76.136719 Z M 299.351562 76.167969 " fill-opacity="1" fill-rule="nonzero"/></g></svg> -->
<svg xmlns="http://www.w3.org/2000/svg" xmlns:xlink="http://www.w3.org/1999/xlink" width="851" zoomAndPan="magnify" viewBox="0 0 638.25 118.1249955" height="157.5" preserveAspectRatio="xMidYMid meet" version="1.0"><defs><clipPath id="af549f092b"><path d="M 0.636719 0 L 636.867188 0 L 636.867188 235.503906 L 0.636719 235.503906 Z M 0.636719 0 " clip-rule="nonzero"/></clipPath><clipPath id="421ad0367a"><path d="M 487 0 L 636.867188 0 L 636.867188 235.503906 L 487 235.503906 Z M 487 0 " clip-rule="nonzero"/></clipPath><clipPath id="e9e9426926"><path d="M 354.988281 -11.300781 L 757.953125 -281.09375 L 1042.511719 143.925781 L 639.546875 413.71875 Z M 354.988281 -11.300781 " clip-rule="nonzero"/></clipPath><clipPath id="14ed633d44"><path d="M 305.40625 -1.050781 L 746.460938 -296.34375 L 1041.757812 144.710938 L 600.703125 440.007812 Z M 305.40625 -1.050781 " clip-rule="nonzero"/></clipPath><clipPath id="917b3e1c68"><path d="M 557 167.835938 L 583.367188 167.835938 L 583.367188 196.785156 L 557 196.785156 Z M 557 167.835938 " clip-rule="nonzero"/></clipPath><clipPath id="cde77f13ca"><path d="M 0.636719 0 L 155 0 L 155 235.503906 L 0.636719 235.503906 Z M 0.636719 0 " clip-rule="nonzero"/></clipPath><clipPath id="aa887f402d"><path d="M -272.757812 525.492188 L -508.714844 -56.863281 L 27.203125 -274.003906 L 263.160156 308.351562 Z M -272.757812 525.492188 " clip-rule="nonzero"/></clipPath><clipPath id="f1ddfa9e46"><path d="M -258.050781 561.789062 L -508.683594 -56.792969 L 157.265625 -326.621094 L 407.898438 291.960938 Z M -258.050781 561.789062 " clip-rule="nonzero"/></clipPath><clipPath id="b10145eaa4"><path d="M 0.636719 0 L 102 0 L 102 212 L 0.636719 212 Z M 0.636719 0 " clip-rule="nonzero"/></clipPath><clipPath id="4b778d45a4"><path d="M -213.417969 197.183594 L -188.605469 -79.300781 L 112.828125 -52.246094 L 88.019531 224.234375 Z M -213.417969 197.183594 " clip-rule="nonzero"/></clipPath><clipPath id="6235c14b14"><path d="M -215.835938 224.125 L -188.605469 -79.304688 L 114.828125 -52.074219 L 87.597656 251.355469 Z M -215.835938 224.125 " clip-rule="nonzero"/></clipPath><clipPath id="23c598d87f"><path d="M 298.800781 68.148438 L 338.941406 68.148438 L 338.941406 75.832031 L 298.800781 75.832031 Z M 298.800781 68.148438 " clip-rule="nonzero"/></clipPath></defs><g clip-path="url(#af549f092b)"><path fill="#ffffff" d="M 0.636719 0 L 636.867188 0 L 636.867188 235.503906 L 0.636719 235.503906 Z M 0.636719 0 " fill-opacity="1" fill-rule="nonzero"/><path fill="#155f4e" d="M 0.636719 0 L 636.867188 0 L 636.867188 235.503906 L 0.636719 235.503906 Z M 0.636719 0 " fill-opacity="1" fill-rule="nonzero"/></g><g clip-path="url(#421ad0367a)"><g clip-path="url(#e9e9426926)"><g clip-path="url(#14ed633d44)"><path fill="#55bf8b" d="M 506.976562 108.46875 C 597.988281 -31.742188 438.09375 -18.285156 504.417969 -112.679688 C 570.738281 -207.078125 693.523438 -166.539062 751.398438 -46.101562 C 789.300781 32.859375 1036.785156 53.96875 937.890625 188.332031 C 838.996094 322.691406 751.085938 213.539062 653.453125 256.019531 C 537.246094 306.460938 459.941406 180.875 506.976562 108.46875 Z M 506.976562 108.46875 " fill-opacity="1" fill-rule="nonzero"/></g></g></g><g clip-path="url(#917b3e1c68)"><path fill="#ebe3c8" d="M 584.3125 181.363281 C 583.773438 178.523438 582.195312 176.03125 580.390625 173.816406 C 578.796875 171.863281 576.910156 170.117188 574.625 169.007812 C 573.523438 168.46875 572.277344 167.972656 571.039062 167.902344 C 569.8125 167.835938 568.570312 168.078125 567.445312 168.574219 C 566.300781 169.070312 565.257812 169.84375 564.476562 170.8125 C 563.589844 171.90625 563.09375 173.21875 562.578125 174.515625 C 561.40625 177.464844 559.605469 180.105469 558.410156 183.054688 C 557.351562 185.660156 556.835938 188.632812 557.914062 191.332031 C 558.953125 193.902344 561.363281 195.382812 564.015625 195.882812 C 567.050781 196.449219 570.1875 195.832031 573.011719 194.664062 C 574.425781 194.085938 575.78125 193.363281 577.101562 192.582031 C 578.40625 191.808594 579.714844 191.015625 580.933594 190.117188 C 582.039062 189.304688 583.003906 188.34375 583.613281 187.101562 C 584.195312 185.921875 584.472656 184.601562 584.484375 183.289062 C 584.492188 182.632812 584.421875 181.992188 584.3125 181.363281 " fill-opacity="1" fill-rule="nonzero"/></g><g clip-path="url(#cde77f13ca)"><g clip-path="url(#aa887f402d)"><g clip-path="url(#f1ddfa9e46)"><path fill="#eb653e" d="M -353.644531 200.242188 C -364.941406 75.519531 -237.894531 36.816406 -213.667969 -23.957031 C -189.441406 -84.726562 -136.214844 -207.8125 19.378906 -223.1875 C 192.183594 -240.273438 99.828125 -29.179688 138.671875 98.207031 C 211.707031 337.613281 16.507812 450.542969 -105.148438 402.136719 C -226.804688 353.730469 -339.011719 361.140625 -353.644531 200.242188 Z M -353.644531 200.242188 " fill-opacity="1" fill-rule="nonzero"/></g></g></g><g clip-path="url(#b10145eaa4)"><g clip-path="url(#4b778d45a4)"><g clip-path="url(#6235c14b14)"><path fill="#f2baae" d="M -94.183594 173.605469 C -123.972656 82.359375 -175.65625 158.636719 -193.890625 94.949219 C -212.125 31.265625 -149.714844 -8.953125 -75.03125 8.652344 C -26.085938 20.210938 72.640625 -82.714844 96.976562 9.941406 C 121.308594 102.59375 40.832031 102.480469 24.578125 161.417969 C 5.175781 231.527344 -78.8125 220.742188 -94.183594 173.605469 Z M -94.183594 173.605469 " fill-opacity="1" fill-rule="nonzero"/></g></g></g><g clip-path="url(#23c598d87f)"><path fill="#eb653e" d="M 299.351562 76.167969 C 299.148438 76.054688 299.074219 75.867188 299.066406 75.644531 C 299.042969 75.074219 299.023438 74.503906 298.992188 73.9375 C 298.941406 72.769531 298.960938 71.601562 298.984375 70.4375 C 298.976562 70.300781 299.042969 70.167969 299.164062 70.097656 C 299.832031 69.664062 300.585938 69.402344 301.378906 69.335938 C 302.277344 69.261719 303.175781 69.1875 304.070312 69.066406 C 304.542969 69 305.023438 68.984375 305.5 68.949219 C 306.382812 68.878906 307.265625 68.8125 308.148438 68.738281 C 308.703125 68.691406 309.257812 68.609375 309.808594 68.574219 C 310.3125 68.535156 310.8125 68.519531 311.3125 68.527344 C 311.882812 68.535156 312.449219 68.574219 313.011719 68.625 C 313.339844 68.65625 313.671875 68.753906 314 68.8125 C 314.621094 68.933594 315.257812 69 315.882812 69.007812 C 316.707031 69.015625 317.539062 69.023438 318.359375 69.015625 C 318.667969 69.015625 318.980469 68.984375 319.296875 68.976562 C 320.15625 68.960938 321.015625 68.949219 321.878906 68.941406 C 323.1875 68.941406 324.496094 68.8125 325.78125 68.558594 C 326.53125 68.421875 327.285156 68.339844 328.042969 68.328125 C 328.773438 68.296875 329.507812 68.242188 330.242188 68.199219 C 330.90625 68.148438 331.582031 68.148438 332.246094 68.199219 C 332.710938 68.242188 333.179688 68.257812 333.636719 68.328125 C 334.324219 68.429688 335.023438 68.421875 335.71875 68.453125 C 336.324219 68.476562 336.9375 68.535156 337.535156 68.617188 C 337.722656 68.632812 337.902344 68.640625 338.089844 68.632812 C 338.164062 68.632812 338.246094 68.617188 338.320312 68.617188 C 338.582031 68.601562 338.746094 68.761719 338.746094 69.023438 C 338.746094 69.882812 338.761719 70.742188 338.730469 71.601562 C 338.710938 72.304688 338.640625 73.007812 338.597656 73.710938 C 338.589844 73.808594 338.53125 73.890625 338.449219 73.945312 C 338.214844 74.109375 337.953125 74.214844 337.667969 74.242188 C 337.617188 74.25 337.566406 74.25 337.503906 74.25 C 336.9375 74.238281 336.390625 74.347656 335.835938 74.46875 C 335.050781 74.648438 334.242188 74.730469 333.433594 74.707031 C 332.671875 74.679688 331.910156 74.632812 331.140625 74.609375 C 330.53125 74.589844 329.917969 74.59375 329.304688 74.589844 C 328.371094 74.582031 327.429688 74.589844 326.492188 74.558594 C 325.886719 74.542969 325.273438 74.484375 324.667969 74.429688 C 323.925781 74.363281 323.1875 74.363281 322.445312 74.4375 C 321.878906 74.5 321.300781 74.542969 320.734375 74.617188 C 320.140625 74.699219 319.550781 74.820312 318.96875 74.933594 C 318.097656 75.097656 317.230469 75.285156 316.363281 75.425781 C 315.683594 75.539062 315 75.605469 314.3125 75.664062 C 312.367188 75.835938 310.414062 75.777344 308.464844 75.769531 C 307.820312 75.769531 307.167969 75.734375 306.527344 75.746094 C 305.746094 75.769531 304.96875 75.828125 304.199219 75.867188 C 303.511719 75.898438 302.824219 75.917969 302.132812 75.949219 C 301.460938 75.972656 300.796875 75.996094 300.128906 76.03125 C 299.949219 76.054688 299.777344 76.089844 299.605469 76.136719 Z M 299.351562 76.167969 " fill-opacity="1" fill-rule="nonzero"/></g></svg>

